M48
; DRILL file {KiCad 8.0.2-1.fc40} date 2024-06-01T22:16:44+0300
; FORMAT={-:-/ absolute / inch / decimal}
; #@! TF.CreationDate,2024-06-01T22:16:44+03:00
; #@! TF.GenerationSoftware,Kicad,Pcbnew,8.0.2-1.fc40
; #@! TF.FileFunction,Plated,1,2,PTH
FMAT,2
INCH
; #@! TA.AperFunction,Plated,PTH,ComponentDrill
T1C0.0315
; #@! TA.AperFunction,Plated,PTH,ComponentDrill
T2C0.0354
; #@! TA.AperFunction,Plated,PTH,ComponentDrill
T3C0.0394
; #@! TA.AperFunction,Plated,PTH,ComponentDrill
T4C0.0433
%
G90
G05
T1
X4.4291Y-3.1695
X4.4291Y-3.2695
X4.7047Y-3.1874
X4.7047Y-3.2874
X5.0197Y-2.6772
X5.0197Y-3.1299
X5.1181Y-2.6772
X5.1181Y-3.1299
X6.1203Y-3.0118
X6.2203Y-3.0118
X6.5354Y-3.3563
X6.5354Y-3.4563
T2
X6.0537Y-3.3858
X6.1387Y-3.3858
X6.2237Y-3.3858
X6.3087Y-3.3858
T3
X3.887Y-3.3858
X3.987Y-3.3858
X4.3276Y-3.5236
X4.4276Y-3.5236
X4.5276Y-3.5236
X4.6276Y-3.5236
X4.7276Y-3.5236
X5.5902Y-3.7949
X5.5902Y-4.3949
X5.6902Y-3.7949
X5.6902Y-4.3949
X5.7902Y-3.7949
X5.7902Y-4.3949
X5.8902Y-3.7949
X5.8902Y-4.3949
X5.9902Y-3.7949
X5.9902Y-4.3949
X6.0902Y-3.7949
X6.0902Y-4.3949
X6.1902Y-3.7949
X6.1902Y-4.3949
X6.2902Y-3.7949
X6.2902Y-4.3949
X6.3902Y-3.7949
X6.3902Y-4.3949
X6.4902Y-3.7949
X6.4902Y-4.3949
X6.5902Y-3.7949
X6.5902Y-4.3949
X6.6902Y-3.7949
X6.6902Y-4.3949
X6.7902Y-3.7949
X6.7902Y-4.3949
X6.8902Y-3.7949
X6.8902Y-4.3949
X6.9902Y-3.7949
X6.9902Y-4.3949
T4
X4.0126Y-3.8976
X4.1126Y-3.8976
X4.4457Y-2.8937
X4.5457Y-2.8937
X4.6457Y-2.8937
X4.7019Y-3.878
X4.8019Y-3.878
M30
