%TF.GenerationSoftware,KiCad,Pcbnew,8.0.2-1.fc40*%
%TF.CreationDate,2024-06-01T22:16:47+03:00*%
%TF.ProjectId,project-depth-to-nmea,70726f6a-6563-4742-9d64-657074682d74,rev?*%
%TF.SameCoordinates,Original*%
%TF.FileFunction,Legend,Top*%
%TF.FilePolarity,Positive*%
%FSLAX46Y46*%
G04 Gerber Fmt 4.6, Leading zero omitted, Abs format (unit mm)*
G04 Created by KiCad (PCBNEW 8.0.2-1.fc40) date 2024-06-01 22:16:47*
%MOMM*%
%LPD*%
G01*
G04 APERTURE LIST*
%ADD10C,0.150000*%
%ADD11C,0.120000*%
G04 APERTURE END LIST*
D10*
X177238095Y-46254819D02*
X177238095Y-45254819D01*
X177238095Y-45731009D02*
X177809523Y-45731009D01*
X177809523Y-46254819D02*
X177809523Y-45254819D01*
X178238095Y-45350057D02*
X178285714Y-45302438D01*
X178285714Y-45302438D02*
X178380952Y-45254819D01*
X178380952Y-45254819D02*
X178619047Y-45254819D01*
X178619047Y-45254819D02*
X178714285Y-45302438D01*
X178714285Y-45302438D02*
X178761904Y-45350057D01*
X178761904Y-45350057D02*
X178809523Y-45445295D01*
X178809523Y-45445295D02*
X178809523Y-45540533D01*
X178809523Y-45540533D02*
X178761904Y-45683390D01*
X178761904Y-45683390D02*
X178190476Y-46254819D01*
X178190476Y-46254819D02*
X178809523Y-46254819D01*
X182799104Y-104724285D02*
X182799104Y-104248095D01*
X183084819Y-104819523D02*
X182084819Y-104486190D01*
X182084819Y-104486190D02*
X183084819Y-104152857D01*
X183084819Y-103295714D02*
X183084819Y-103867142D01*
X183084819Y-103581428D02*
X182084819Y-103581428D01*
X182084819Y-103581428D02*
X182227676Y-103676666D01*
X182227676Y-103676666D02*
X182322914Y-103771904D01*
X182322914Y-103771904D02*
X182370533Y-103867142D01*
X142535180Y-102748095D02*
X141725657Y-102748095D01*
X141725657Y-102748095D02*
X141630419Y-102795714D01*
X141630419Y-102795714D02*
X141582800Y-102843333D01*
X141582800Y-102843333D02*
X141535180Y-102938571D01*
X141535180Y-102938571D02*
X141535180Y-103129047D01*
X141535180Y-103129047D02*
X141582800Y-103224285D01*
X141582800Y-103224285D02*
X141630419Y-103271904D01*
X141630419Y-103271904D02*
X141725657Y-103319523D01*
X141725657Y-103319523D02*
X142535180Y-103319523D01*
X141582800Y-103748095D02*
X141535180Y-103890952D01*
X141535180Y-103890952D02*
X141535180Y-104129047D01*
X141535180Y-104129047D02*
X141582800Y-104224285D01*
X141582800Y-104224285D02*
X141630419Y-104271904D01*
X141630419Y-104271904D02*
X141725657Y-104319523D01*
X141725657Y-104319523D02*
X141820895Y-104319523D01*
X141820895Y-104319523D02*
X141916133Y-104271904D01*
X141916133Y-104271904D02*
X141963752Y-104224285D01*
X141963752Y-104224285D02*
X142011371Y-104129047D01*
X142011371Y-104129047D02*
X142058990Y-103938571D01*
X142058990Y-103938571D02*
X142106609Y-103843333D01*
X142106609Y-103843333D02*
X142154228Y-103795714D01*
X142154228Y-103795714D02*
X142249466Y-103748095D01*
X142249466Y-103748095D02*
X142344704Y-103748095D01*
X142344704Y-103748095D02*
X142439942Y-103795714D01*
X142439942Y-103795714D02*
X142487561Y-103843333D01*
X142487561Y-103843333D02*
X142535180Y-103938571D01*
X142535180Y-103938571D02*
X142535180Y-104176666D01*
X142535180Y-104176666D02*
X142487561Y-104319523D01*
X142058990Y-105081428D02*
X142011371Y-105224285D01*
X142011371Y-105224285D02*
X141963752Y-105271904D01*
X141963752Y-105271904D02*
X141868514Y-105319523D01*
X141868514Y-105319523D02*
X141725657Y-105319523D01*
X141725657Y-105319523D02*
X141630419Y-105271904D01*
X141630419Y-105271904D02*
X141582800Y-105224285D01*
X141582800Y-105224285D02*
X141535180Y-105129047D01*
X141535180Y-105129047D02*
X141535180Y-104748095D01*
X141535180Y-104748095D02*
X142535180Y-104748095D01*
X142535180Y-104748095D02*
X142535180Y-105081428D01*
X142535180Y-105081428D02*
X142487561Y-105176666D01*
X142487561Y-105176666D02*
X142439942Y-105224285D01*
X142439942Y-105224285D02*
X142344704Y-105271904D01*
X142344704Y-105271904D02*
X142249466Y-105271904D01*
X142249466Y-105271904D02*
X142154228Y-105224285D01*
X142154228Y-105224285D02*
X142106609Y-105176666D01*
X142106609Y-105176666D02*
X142058990Y-105081428D01*
X142058990Y-105081428D02*
X142058990Y-104748095D01*
X122304819Y-89833333D02*
X123019104Y-89833333D01*
X123019104Y-89833333D02*
X123161961Y-89880952D01*
X123161961Y-89880952D02*
X123257200Y-89976190D01*
X123257200Y-89976190D02*
X123304819Y-90119047D01*
X123304819Y-90119047D02*
X123304819Y-90214285D01*
X123304819Y-88833333D02*
X123304819Y-89404761D01*
X123304819Y-89119047D02*
X122304819Y-89119047D01*
X122304819Y-89119047D02*
X122447676Y-89214285D01*
X122447676Y-89214285D02*
X122542914Y-89309523D01*
X122542914Y-89309523D02*
X122590533Y-89404761D01*
X110584819Y-81941666D02*
X110108628Y-82274999D01*
X110584819Y-82513094D02*
X109584819Y-82513094D01*
X109584819Y-82513094D02*
X109584819Y-82132142D01*
X109584819Y-82132142D02*
X109632438Y-82036904D01*
X109632438Y-82036904D02*
X109680057Y-81989285D01*
X109680057Y-81989285D02*
X109775295Y-81941666D01*
X109775295Y-81941666D02*
X109918152Y-81941666D01*
X109918152Y-81941666D02*
X110013390Y-81989285D01*
X110013390Y-81989285D02*
X110061009Y-82036904D01*
X110061009Y-82036904D02*
X110108628Y-82132142D01*
X110108628Y-82132142D02*
X110108628Y-82513094D01*
X110584819Y-80989285D02*
X110584819Y-81560713D01*
X110584819Y-81274999D02*
X109584819Y-81274999D01*
X109584819Y-81274999D02*
X109727676Y-81370237D01*
X109727676Y-81370237D02*
X109822914Y-81465475D01*
X109822914Y-81465475D02*
X109870533Y-81560713D01*
X156558333Y-74584819D02*
X156225000Y-74108628D01*
X155986905Y-74584819D02*
X155986905Y-73584819D01*
X155986905Y-73584819D02*
X156367857Y-73584819D01*
X156367857Y-73584819D02*
X156463095Y-73632438D01*
X156463095Y-73632438D02*
X156510714Y-73680057D01*
X156510714Y-73680057D02*
X156558333Y-73775295D01*
X156558333Y-73775295D02*
X156558333Y-73918152D01*
X156558333Y-73918152D02*
X156510714Y-74013390D01*
X156510714Y-74013390D02*
X156463095Y-74061009D01*
X156463095Y-74061009D02*
X156367857Y-74108628D01*
X156367857Y-74108628D02*
X155986905Y-74108628D01*
X156891667Y-73584819D02*
X157510714Y-73584819D01*
X157510714Y-73584819D02*
X157177381Y-73965771D01*
X157177381Y-73965771D02*
X157320238Y-73965771D01*
X157320238Y-73965771D02*
X157415476Y-74013390D01*
X157415476Y-74013390D02*
X157463095Y-74061009D01*
X157463095Y-74061009D02*
X157510714Y-74156247D01*
X157510714Y-74156247D02*
X157510714Y-74394342D01*
X157510714Y-74394342D02*
X157463095Y-74489580D01*
X157463095Y-74489580D02*
X157415476Y-74537200D01*
X157415476Y-74537200D02*
X157320238Y-74584819D01*
X157320238Y-74584819D02*
X157034524Y-74584819D01*
X157034524Y-74584819D02*
X156939286Y-74537200D01*
X156939286Y-74537200D02*
X156891667Y-74489580D01*
X114221905Y-73744819D02*
X114221905Y-72744819D01*
X114221905Y-73221009D02*
X114793333Y-73221009D01*
X114793333Y-73744819D02*
X114793333Y-72744819D01*
X115221905Y-73697200D02*
X115364762Y-73744819D01*
X115364762Y-73744819D02*
X115602857Y-73744819D01*
X115602857Y-73744819D02*
X115698095Y-73697200D01*
X115698095Y-73697200D02*
X115745714Y-73649580D01*
X115745714Y-73649580D02*
X115793333Y-73554342D01*
X115793333Y-73554342D02*
X115793333Y-73459104D01*
X115793333Y-73459104D02*
X115745714Y-73363866D01*
X115745714Y-73363866D02*
X115698095Y-73316247D01*
X115698095Y-73316247D02*
X115602857Y-73268628D01*
X115602857Y-73268628D02*
X115412381Y-73221009D01*
X115412381Y-73221009D02*
X115317143Y-73173390D01*
X115317143Y-73173390D02*
X115269524Y-73125771D01*
X115269524Y-73125771D02*
X115221905Y-73030533D01*
X115221905Y-73030533D02*
X115221905Y-72935295D01*
X115221905Y-72935295D02*
X115269524Y-72840057D01*
X115269524Y-72840057D02*
X115317143Y-72792438D01*
X115317143Y-72792438D02*
X115412381Y-72744819D01*
X115412381Y-72744819D02*
X115650476Y-72744819D01*
X115650476Y-72744819D02*
X115793333Y-72792438D01*
X116745714Y-73744819D02*
X116174286Y-73744819D01*
X116460000Y-73744819D02*
X116460000Y-72744819D01*
X116460000Y-72744819D02*
X116364762Y-72887676D01*
X116364762Y-72887676D02*
X116269524Y-72982914D01*
X116269524Y-72982914D02*
X116174286Y-73030533D01*
X168454819Y-90833333D02*
X169169104Y-90833333D01*
X169169104Y-90833333D02*
X169311961Y-90880952D01*
X169311961Y-90880952D02*
X169407200Y-90976190D01*
X169407200Y-90976190D02*
X169454819Y-91119047D01*
X169454819Y-91119047D02*
X169454819Y-91214285D01*
X169454819Y-90357142D02*
X168454819Y-90357142D01*
X168454819Y-90357142D02*
X168454819Y-89976190D01*
X168454819Y-89976190D02*
X168502438Y-89880952D01*
X168502438Y-89880952D02*
X168550057Y-89833333D01*
X168550057Y-89833333D02*
X168645295Y-89785714D01*
X168645295Y-89785714D02*
X168788152Y-89785714D01*
X168788152Y-89785714D02*
X168883390Y-89833333D01*
X168883390Y-89833333D02*
X168931009Y-89880952D01*
X168931009Y-89880952D02*
X168978628Y-89976190D01*
X168978628Y-89976190D02*
X168978628Y-90357142D01*
X169454819Y-88833333D02*
X169454819Y-89404761D01*
X169454819Y-89119047D02*
X168454819Y-89119047D01*
X168454819Y-89119047D02*
X168597676Y-89214285D01*
X168597676Y-89214285D02*
X168692914Y-89309523D01*
X168692914Y-89309523D02*
X168740533Y-89404761D01*
X177238095Y-115254819D02*
X177238095Y-114254819D01*
X177238095Y-114731009D02*
X177809523Y-114731009D01*
X177809523Y-115254819D02*
X177809523Y-114254819D01*
X178714285Y-114588152D02*
X178714285Y-115254819D01*
X178476190Y-114207200D02*
X178238095Y-114921485D01*
X178238095Y-114921485D02*
X178857142Y-114921485D01*
X128583333Y-64609580D02*
X128535714Y-64657200D01*
X128535714Y-64657200D02*
X128392857Y-64704819D01*
X128392857Y-64704819D02*
X128297619Y-64704819D01*
X128297619Y-64704819D02*
X128154762Y-64657200D01*
X128154762Y-64657200D02*
X128059524Y-64561961D01*
X128059524Y-64561961D02*
X128011905Y-64466723D01*
X128011905Y-64466723D02*
X127964286Y-64276247D01*
X127964286Y-64276247D02*
X127964286Y-64133390D01*
X127964286Y-64133390D02*
X128011905Y-63942914D01*
X128011905Y-63942914D02*
X128059524Y-63847676D01*
X128059524Y-63847676D02*
X128154762Y-63752438D01*
X128154762Y-63752438D02*
X128297619Y-63704819D01*
X128297619Y-63704819D02*
X128392857Y-63704819D01*
X128392857Y-63704819D02*
X128535714Y-63752438D01*
X128535714Y-63752438D02*
X128583333Y-63800057D01*
X129535714Y-64704819D02*
X128964286Y-64704819D01*
X129250000Y-64704819D02*
X129250000Y-63704819D01*
X129250000Y-63704819D02*
X129154762Y-63847676D01*
X129154762Y-63847676D02*
X129059524Y-63942914D01*
X129059524Y-63942914D02*
X128964286Y-63990533D01*
X119960105Y-96204184D02*
X119960105Y-95204184D01*
X119960105Y-95204184D02*
X120198200Y-95204184D01*
X120198200Y-95204184D02*
X120341057Y-95251803D01*
X120341057Y-95251803D02*
X120436295Y-95347041D01*
X120436295Y-95347041D02*
X120483914Y-95442279D01*
X120483914Y-95442279D02*
X120531533Y-95632755D01*
X120531533Y-95632755D02*
X120531533Y-95775612D01*
X120531533Y-95775612D02*
X120483914Y-95966088D01*
X120483914Y-95966088D02*
X120436295Y-96061326D01*
X120436295Y-96061326D02*
X120341057Y-96156565D01*
X120341057Y-96156565D02*
X120198200Y-96204184D01*
X120198200Y-96204184D02*
X119960105Y-96204184D01*
X121483914Y-96204184D02*
X120912486Y-96204184D01*
X121198200Y-96204184D02*
X121198200Y-95204184D01*
X121198200Y-95204184D02*
X121102962Y-95347041D01*
X121102962Y-95347041D02*
X121007724Y-95442279D01*
X121007724Y-95442279D02*
X120912486Y-95489898D01*
X123830105Y-98669104D02*
X124306295Y-98669104D01*
X123734867Y-98954819D02*
X124068200Y-97954819D01*
X124068200Y-97954819D02*
X124401533Y-98954819D01*
X128583333Y-76109580D02*
X128535714Y-76157200D01*
X128535714Y-76157200D02*
X128392857Y-76204819D01*
X128392857Y-76204819D02*
X128297619Y-76204819D01*
X128297619Y-76204819D02*
X128154762Y-76157200D01*
X128154762Y-76157200D02*
X128059524Y-76061961D01*
X128059524Y-76061961D02*
X128011905Y-75966723D01*
X128011905Y-75966723D02*
X127964286Y-75776247D01*
X127964286Y-75776247D02*
X127964286Y-75633390D01*
X127964286Y-75633390D02*
X128011905Y-75442914D01*
X128011905Y-75442914D02*
X128059524Y-75347676D01*
X128059524Y-75347676D02*
X128154762Y-75252438D01*
X128154762Y-75252438D02*
X128297619Y-75204819D01*
X128297619Y-75204819D02*
X128392857Y-75204819D01*
X128392857Y-75204819D02*
X128535714Y-75252438D01*
X128535714Y-75252438D02*
X128583333Y-75300057D01*
X128964286Y-75300057D02*
X129011905Y-75252438D01*
X129011905Y-75252438D02*
X129107143Y-75204819D01*
X129107143Y-75204819D02*
X129345238Y-75204819D01*
X129345238Y-75204819D02*
X129440476Y-75252438D01*
X129440476Y-75252438D02*
X129488095Y-75300057D01*
X129488095Y-75300057D02*
X129535714Y-75395295D01*
X129535714Y-75395295D02*
X129535714Y-75490533D01*
X129535714Y-75490533D02*
X129488095Y-75633390D01*
X129488095Y-75633390D02*
X128916667Y-76204819D01*
X128916667Y-76204819D02*
X129535714Y-76204819D01*
X156263405Y-90414819D02*
X156263405Y-89414819D01*
X156263405Y-89414819D02*
X156501500Y-89414819D01*
X156501500Y-89414819D02*
X156644357Y-89462438D01*
X156644357Y-89462438D02*
X156739595Y-89557676D01*
X156739595Y-89557676D02*
X156787214Y-89652914D01*
X156787214Y-89652914D02*
X156834833Y-89843390D01*
X156834833Y-89843390D02*
X156834833Y-89986247D01*
X156834833Y-89986247D02*
X156787214Y-90176723D01*
X156787214Y-90176723D02*
X156739595Y-90271961D01*
X156739595Y-90271961D02*
X156644357Y-90367200D01*
X156644357Y-90367200D02*
X156501500Y-90414819D01*
X156501500Y-90414819D02*
X156263405Y-90414819D01*
X157168167Y-89414819D02*
X157787214Y-89414819D01*
X157787214Y-89414819D02*
X157453881Y-89795771D01*
X157453881Y-89795771D02*
X157596738Y-89795771D01*
X157596738Y-89795771D02*
X157691976Y-89843390D01*
X157691976Y-89843390D02*
X157739595Y-89891009D01*
X157739595Y-89891009D02*
X157787214Y-89986247D01*
X157787214Y-89986247D02*
X157787214Y-90224342D01*
X157787214Y-90224342D02*
X157739595Y-90319580D01*
X157739595Y-90319580D02*
X157691976Y-90367200D01*
X157691976Y-90367200D02*
X157596738Y-90414819D01*
X157596738Y-90414819D02*
X157311024Y-90414819D01*
X157311024Y-90414819D02*
X157215786Y-90367200D01*
X157215786Y-90367200D02*
X157168167Y-90319580D01*
X114698095Y-68684819D02*
X114698095Y-69494342D01*
X114698095Y-69494342D02*
X114745714Y-69589580D01*
X114745714Y-69589580D02*
X114793333Y-69637200D01*
X114793333Y-69637200D02*
X114888571Y-69684819D01*
X114888571Y-69684819D02*
X115079047Y-69684819D01*
X115079047Y-69684819D02*
X115174285Y-69637200D01*
X115174285Y-69637200D02*
X115221904Y-69589580D01*
X115221904Y-69589580D02*
X115269523Y-69494342D01*
X115269523Y-69494342D02*
X115269523Y-68684819D01*
X116269523Y-69684819D02*
X115698095Y-69684819D01*
X115983809Y-69684819D02*
X115983809Y-68684819D01*
X115983809Y-68684819D02*
X115888571Y-68827676D01*
X115888571Y-68827676D02*
X115793333Y-68922914D01*
X115793333Y-68922914D02*
X115698095Y-68970533D01*
X99238095Y-115254819D02*
X99238095Y-114254819D01*
X99238095Y-114731009D02*
X99809523Y-114731009D01*
X99809523Y-115254819D02*
X99809523Y-114254819D01*
X100190476Y-114254819D02*
X100809523Y-114254819D01*
X100809523Y-114254819D02*
X100476190Y-114635771D01*
X100476190Y-114635771D02*
X100619047Y-114635771D01*
X100619047Y-114635771D02*
X100714285Y-114683390D01*
X100714285Y-114683390D02*
X100761904Y-114731009D01*
X100761904Y-114731009D02*
X100809523Y-114826247D01*
X100809523Y-114826247D02*
X100809523Y-115064342D01*
X100809523Y-115064342D02*
X100761904Y-115159580D01*
X100761904Y-115159580D02*
X100714285Y-115207200D01*
X100714285Y-115207200D02*
X100619047Y-115254819D01*
X100619047Y-115254819D02*
X100333333Y-115254819D01*
X100333333Y-115254819D02*
X100238095Y-115207200D01*
X100238095Y-115207200D02*
X100190476Y-115159580D01*
X102451905Y-96704184D02*
X102451905Y-95704184D01*
X102451905Y-95704184D02*
X102690000Y-95704184D01*
X102690000Y-95704184D02*
X102832857Y-95751803D01*
X102832857Y-95751803D02*
X102928095Y-95847041D01*
X102928095Y-95847041D02*
X102975714Y-95942279D01*
X102975714Y-95942279D02*
X103023333Y-96132755D01*
X103023333Y-96132755D02*
X103023333Y-96275612D01*
X103023333Y-96275612D02*
X102975714Y-96466088D01*
X102975714Y-96466088D02*
X102928095Y-96561326D01*
X102928095Y-96561326D02*
X102832857Y-96656565D01*
X102832857Y-96656565D02*
X102690000Y-96704184D01*
X102690000Y-96704184D02*
X102451905Y-96704184D01*
X103404286Y-95799422D02*
X103451905Y-95751803D01*
X103451905Y-95751803D02*
X103547143Y-95704184D01*
X103547143Y-95704184D02*
X103785238Y-95704184D01*
X103785238Y-95704184D02*
X103880476Y-95751803D01*
X103880476Y-95751803D02*
X103928095Y-95799422D01*
X103928095Y-95799422D02*
X103975714Y-95894660D01*
X103975714Y-95894660D02*
X103975714Y-95989898D01*
X103975714Y-95989898D02*
X103928095Y-96132755D01*
X103928095Y-96132755D02*
X103356667Y-96704184D01*
X103356667Y-96704184D02*
X103975714Y-96704184D01*
X106321905Y-99169104D02*
X106798095Y-99169104D01*
X106226667Y-99454819D02*
X106560000Y-98454819D01*
X106560000Y-98454819D02*
X106893333Y-99454819D01*
X99833333Y-83334819D02*
X99357143Y-83334819D01*
X99357143Y-83334819D02*
X99357143Y-82334819D01*
X100690476Y-83334819D02*
X100119048Y-83334819D01*
X100404762Y-83334819D02*
X100404762Y-82334819D01*
X100404762Y-82334819D02*
X100309524Y-82477676D01*
X100309524Y-82477676D02*
X100214286Y-82572914D01*
X100214286Y-82572914D02*
X100119048Y-82620533D01*
X122324819Y-82396666D02*
X121848628Y-82729999D01*
X122324819Y-82968094D02*
X121324819Y-82968094D01*
X121324819Y-82968094D02*
X121324819Y-82587142D01*
X121324819Y-82587142D02*
X121372438Y-82491904D01*
X121372438Y-82491904D02*
X121420057Y-82444285D01*
X121420057Y-82444285D02*
X121515295Y-82396666D01*
X121515295Y-82396666D02*
X121658152Y-82396666D01*
X121658152Y-82396666D02*
X121753390Y-82444285D01*
X121753390Y-82444285D02*
X121801009Y-82491904D01*
X121801009Y-82491904D02*
X121848628Y-82587142D01*
X121848628Y-82587142D02*
X121848628Y-82968094D01*
X121420057Y-82015713D02*
X121372438Y-81968094D01*
X121372438Y-81968094D02*
X121324819Y-81872856D01*
X121324819Y-81872856D02*
X121324819Y-81634761D01*
X121324819Y-81634761D02*
X121372438Y-81539523D01*
X121372438Y-81539523D02*
X121420057Y-81491904D01*
X121420057Y-81491904D02*
X121515295Y-81444285D01*
X121515295Y-81444285D02*
X121610533Y-81444285D01*
X121610533Y-81444285D02*
X121753390Y-81491904D01*
X121753390Y-81491904D02*
X122324819Y-82063332D01*
X122324819Y-82063332D02*
X122324819Y-81444285D01*
X99238095Y-46254819D02*
X99238095Y-45254819D01*
X99238095Y-45731009D02*
X99809523Y-45731009D01*
X99809523Y-46254819D02*
X99809523Y-45254819D01*
X100809523Y-46254819D02*
X100238095Y-46254819D01*
X100523809Y-46254819D02*
X100523809Y-45254819D01*
X100523809Y-45254819D02*
X100428571Y-45397676D01*
X100428571Y-45397676D02*
X100333333Y-45492914D01*
X100333333Y-45492914D02*
X100238095Y-45540533D01*
D11*
%TO.C,A1*%
X135510000Y-100070000D02*
X145930000Y-100070000D01*
X135510000Y-107950000D02*
X135510000Y-100070000D01*
X138050000Y-94990000D02*
X138050000Y-100070000D01*
X138050000Y-113030000D02*
X138050000Y-107950000D01*
X138050000Y-113030000D02*
X181490000Y-113030000D01*
X140720000Y-97660000D02*
X140720000Y-94990000D01*
X140720000Y-110360000D02*
X140720000Y-113030000D01*
X145930000Y-100070000D02*
X145930000Y-107950000D01*
X145930000Y-107950000D02*
X135510000Y-107950000D01*
X176280000Y-94990000D02*
X138050000Y-94990000D01*
X176280000Y-97660000D02*
X140720000Y-97660000D01*
X176280000Y-97660000D02*
X176280000Y-94990000D01*
X176280000Y-97660000D02*
X178820000Y-97660000D01*
X178820000Y-97660000D02*
X178820000Y-94990000D01*
X178820000Y-110360000D02*
X140720000Y-110360000D01*
X178820000Y-110360000D02*
X178820000Y-113030000D01*
X181490000Y-94990000D02*
X178820000Y-94990000D01*
X181490000Y-113030000D02*
X181490000Y-94990000D01*
%TO.C,J1*%
X108590000Y-88170000D02*
X108590000Y-90830000D01*
X118810000Y-88170000D02*
X108590000Y-88170000D01*
X118810000Y-88170000D02*
X118810000Y-90830000D01*
X118810000Y-90830000D02*
X108590000Y-90830000D01*
X121410000Y-89500000D02*
X121410000Y-90830000D01*
X121410000Y-90830000D02*
X120080000Y-90830000D01*
%TO.C,R1*%
X112500000Y-81675000D02*
X112500000Y-81605000D01*
X113870000Y-83045000D02*
G75*
G02*
X111130000Y-83045000I-1370000J0D01*
G01*
X111130000Y-83045000D02*
G75*
G02*
X113870000Y-83045000I1370000J0D01*
G01*
%TO.C,R3*%
X156825000Y-76500000D02*
X156895000Y-76500000D01*
X156825000Y-76500000D02*
G75*
G02*
X154085000Y-76500000I-1370000J0D01*
G01*
X154085000Y-76500000D02*
G75*
G02*
X156825000Y-76500000I1370000J0D01*
G01*
%TO.C,HS1*%
X108740000Y-67180000D02*
X108740000Y-76930000D01*
X108740000Y-67180000D02*
X122180000Y-67180000D01*
X108740000Y-76930000D02*
X110170000Y-76930000D01*
X110170000Y-68600000D02*
X120750000Y-68600000D01*
X110170000Y-76930000D02*
X110170000Y-68600000D01*
X113560000Y-67180000D02*
X113560000Y-67480000D01*
X113560000Y-67740000D02*
X113560000Y-68040000D01*
X113560000Y-68300000D02*
X113560000Y-68600000D01*
X117360000Y-67180000D02*
X117360000Y-67480000D01*
X117360000Y-67740000D02*
X117360000Y-68040000D01*
X117360000Y-68300000D02*
X117360000Y-68600000D01*
X120750000Y-68600000D02*
X120750000Y-76930000D01*
X120750000Y-76930000D02*
X122180000Y-76930000D01*
X122180000Y-67180000D02*
X122180000Y-76930000D01*
D10*
%TO.C,JP1*%
X165100000Y-84720000D02*
X165600000Y-84220000D01*
X165100000Y-88320000D02*
X165100000Y-84720000D01*
X165600000Y-84220000D02*
X166400000Y-84220000D01*
X165600000Y-88820000D02*
X165100000Y-88320000D01*
X166400000Y-84220000D02*
X166900000Y-84720000D01*
X166400000Y-88820000D02*
X165600000Y-88820000D01*
X166900000Y-84720000D02*
X166900000Y-88320000D01*
X166900000Y-88320000D02*
X166400000Y-88820000D01*
D11*
%TO.C,C1*%
X125945225Y-66525000D02*
X126445225Y-66525000D01*
X126195225Y-66275000D02*
X126195225Y-66775000D01*
X128750000Y-65420000D02*
X128750000Y-70580000D01*
X128790000Y-65420000D02*
X128790000Y-70580000D01*
X128830000Y-65421000D02*
X128830000Y-70579000D01*
X128870000Y-65422000D02*
X128870000Y-70578000D01*
X128910000Y-65424000D02*
X128910000Y-70576000D01*
X128950000Y-65427000D02*
X128950000Y-70573000D01*
X128990000Y-65431000D02*
X128990000Y-66960000D01*
X128990000Y-69040000D02*
X128990000Y-70569000D01*
X129030000Y-65435000D02*
X129030000Y-66960000D01*
X129030000Y-69040000D02*
X129030000Y-70565000D01*
X129070000Y-65439000D02*
X129070000Y-66960000D01*
X129070000Y-69040000D02*
X129070000Y-70561000D01*
X129110000Y-65444000D02*
X129110000Y-66960000D01*
X129110000Y-69040000D02*
X129110000Y-70556000D01*
X129150000Y-65450000D02*
X129150000Y-66960000D01*
X129150000Y-69040000D02*
X129150000Y-70550000D01*
X129190000Y-65457000D02*
X129190000Y-66960000D01*
X129190000Y-69040000D02*
X129190000Y-70543000D01*
X129230000Y-65464000D02*
X129230000Y-66960000D01*
X129230000Y-69040000D02*
X129230000Y-70536000D01*
X129270000Y-65472000D02*
X129270000Y-66960000D01*
X129270000Y-69040000D02*
X129270000Y-70528000D01*
X129310000Y-65480000D02*
X129310000Y-66960000D01*
X129310000Y-69040000D02*
X129310000Y-70520000D01*
X129350000Y-65489000D02*
X129350000Y-66960000D01*
X129350000Y-69040000D02*
X129350000Y-70511000D01*
X129390000Y-65499000D02*
X129390000Y-66960000D01*
X129390000Y-69040000D02*
X129390000Y-70501000D01*
X129430000Y-65509000D02*
X129430000Y-66960000D01*
X129430000Y-69040000D02*
X129430000Y-70491000D01*
X129471000Y-65520000D02*
X129471000Y-66960000D01*
X129471000Y-69040000D02*
X129471000Y-70480000D01*
X129511000Y-65532000D02*
X129511000Y-66960000D01*
X129511000Y-69040000D02*
X129511000Y-70468000D01*
X129551000Y-65545000D02*
X129551000Y-66960000D01*
X129551000Y-69040000D02*
X129551000Y-70455000D01*
X129591000Y-65558000D02*
X129591000Y-66960000D01*
X129591000Y-69040000D02*
X129591000Y-70442000D01*
X129631000Y-65572000D02*
X129631000Y-66960000D01*
X129631000Y-69040000D02*
X129631000Y-70428000D01*
X129671000Y-65586000D02*
X129671000Y-66960000D01*
X129671000Y-69040000D02*
X129671000Y-70414000D01*
X129711000Y-65602000D02*
X129711000Y-66960000D01*
X129711000Y-69040000D02*
X129711000Y-70398000D01*
X129751000Y-65618000D02*
X129751000Y-66960000D01*
X129751000Y-69040000D02*
X129751000Y-70382000D01*
X129791000Y-65635000D02*
X129791000Y-66960000D01*
X129791000Y-69040000D02*
X129791000Y-70365000D01*
X129831000Y-65652000D02*
X129831000Y-66960000D01*
X129831000Y-69040000D02*
X129831000Y-70348000D01*
X129871000Y-65671000D02*
X129871000Y-66960000D01*
X129871000Y-69040000D02*
X129871000Y-70329000D01*
X129911000Y-65690000D02*
X129911000Y-66960000D01*
X129911000Y-69040000D02*
X129911000Y-70310000D01*
X129951000Y-65710000D02*
X129951000Y-66960000D01*
X129951000Y-69040000D02*
X129951000Y-70290000D01*
X129991000Y-65732000D02*
X129991000Y-66960000D01*
X129991000Y-69040000D02*
X129991000Y-70268000D01*
X130031000Y-65753000D02*
X130031000Y-66960000D01*
X130031000Y-69040000D02*
X130031000Y-70247000D01*
X130071000Y-65776000D02*
X130071000Y-66960000D01*
X130071000Y-69040000D02*
X130071000Y-70224000D01*
X130111000Y-65800000D02*
X130111000Y-66960000D01*
X130111000Y-69040000D02*
X130111000Y-70200000D01*
X130151000Y-65825000D02*
X130151000Y-66960000D01*
X130151000Y-69040000D02*
X130151000Y-70175000D01*
X130191000Y-65851000D02*
X130191000Y-66960000D01*
X130191000Y-69040000D02*
X130191000Y-70149000D01*
X130231000Y-65878000D02*
X130231000Y-66960000D01*
X130231000Y-69040000D02*
X130231000Y-70122000D01*
X130271000Y-65905000D02*
X130271000Y-66960000D01*
X130271000Y-69040000D02*
X130271000Y-70095000D01*
X130311000Y-65935000D02*
X130311000Y-66960000D01*
X130311000Y-69040000D02*
X130311000Y-70065000D01*
X130351000Y-65965000D02*
X130351000Y-66960000D01*
X130351000Y-69040000D02*
X130351000Y-70035000D01*
X130391000Y-65996000D02*
X130391000Y-66960000D01*
X130391000Y-69040000D02*
X130391000Y-70004000D01*
X130431000Y-66029000D02*
X130431000Y-66960000D01*
X130431000Y-69040000D02*
X130431000Y-69971000D01*
X130471000Y-66063000D02*
X130471000Y-66960000D01*
X130471000Y-69040000D02*
X130471000Y-69937000D01*
X130511000Y-66099000D02*
X130511000Y-66960000D01*
X130511000Y-69040000D02*
X130511000Y-69901000D01*
X130551000Y-66136000D02*
X130551000Y-66960000D01*
X130551000Y-69040000D02*
X130551000Y-69864000D01*
X130591000Y-66174000D02*
X130591000Y-66960000D01*
X130591000Y-69040000D02*
X130591000Y-69826000D01*
X130631000Y-66215000D02*
X130631000Y-66960000D01*
X130631000Y-69040000D02*
X130631000Y-69785000D01*
X130671000Y-66257000D02*
X130671000Y-66960000D01*
X130671000Y-69040000D02*
X130671000Y-69743000D01*
X130711000Y-66301000D02*
X130711000Y-66960000D01*
X130711000Y-69040000D02*
X130711000Y-69699000D01*
X130751000Y-66347000D02*
X130751000Y-66960000D01*
X130751000Y-69040000D02*
X130751000Y-69653000D01*
X130791000Y-66395000D02*
X130791000Y-66960000D01*
X130791000Y-69040000D02*
X130791000Y-69605000D01*
X130831000Y-66446000D02*
X130831000Y-66960000D01*
X130831000Y-69040000D02*
X130831000Y-69554000D01*
X130871000Y-66500000D02*
X130871000Y-66960000D01*
X130871000Y-69040000D02*
X130871000Y-69500000D01*
X130911000Y-66557000D02*
X130911000Y-66960000D01*
X130911000Y-69040000D02*
X130911000Y-69443000D01*
X130951000Y-66617000D02*
X130951000Y-66960000D01*
X130951000Y-69040000D02*
X130951000Y-69383000D01*
X130991000Y-66681000D02*
X130991000Y-66960000D01*
X130991000Y-69040000D02*
X130991000Y-69319000D01*
X131031000Y-66749000D02*
X131031000Y-66960000D01*
X131031000Y-69040000D02*
X131031000Y-69251000D01*
X131071000Y-66822000D02*
X131071000Y-69178000D01*
X131111000Y-66902000D02*
X131111000Y-69098000D01*
X131151000Y-66989000D02*
X131151000Y-69011000D01*
X131191000Y-67085000D02*
X131191000Y-68915000D01*
X131231000Y-67195000D02*
X131231000Y-68805000D01*
X131271000Y-67323000D02*
X131271000Y-68677000D01*
X131311000Y-67482000D02*
X131311000Y-68518000D01*
X131351000Y-67716000D02*
X131351000Y-68284000D01*
X131370000Y-68000000D02*
G75*
G02*
X126130000Y-68000000I-2620000J0D01*
G01*
X126130000Y-68000000D02*
G75*
G02*
X131370000Y-68000000I2620000J0D01*
G01*
%TO.C,D1*%
X120679751Y-99667366D02*
G75*
G02*
X120739353Y-97400000I-1251551J1167366D01*
G01*
%TO.C,C2*%
X125945225Y-78025000D02*
X126445225Y-78025000D01*
X126195225Y-77775000D02*
X126195225Y-78275000D01*
X128750000Y-76920000D02*
X128750000Y-82080000D01*
X128790000Y-76920000D02*
X128790000Y-82080000D01*
X128830000Y-76921000D02*
X128830000Y-82079000D01*
X128870000Y-76922000D02*
X128870000Y-82078000D01*
X128910000Y-76924000D02*
X128910000Y-82076000D01*
X128950000Y-76927000D02*
X128950000Y-82073000D01*
X128990000Y-76931000D02*
X128990000Y-78460000D01*
X128990000Y-80540000D02*
X128990000Y-82069000D01*
X129030000Y-76935000D02*
X129030000Y-78460000D01*
X129030000Y-80540000D02*
X129030000Y-82065000D01*
X129070000Y-76939000D02*
X129070000Y-78460000D01*
X129070000Y-80540000D02*
X129070000Y-82061000D01*
X129110000Y-76944000D02*
X129110000Y-78460000D01*
X129110000Y-80540000D02*
X129110000Y-82056000D01*
X129150000Y-76950000D02*
X129150000Y-78460000D01*
X129150000Y-80540000D02*
X129150000Y-82050000D01*
X129190000Y-76957000D02*
X129190000Y-78460000D01*
X129190000Y-80540000D02*
X129190000Y-82043000D01*
X129230000Y-76964000D02*
X129230000Y-78460000D01*
X129230000Y-80540000D02*
X129230000Y-82036000D01*
X129270000Y-76972000D02*
X129270000Y-78460000D01*
X129270000Y-80540000D02*
X129270000Y-82028000D01*
X129310000Y-76980000D02*
X129310000Y-78460000D01*
X129310000Y-80540000D02*
X129310000Y-82020000D01*
X129350000Y-76989000D02*
X129350000Y-78460000D01*
X129350000Y-80540000D02*
X129350000Y-82011000D01*
X129390000Y-76999000D02*
X129390000Y-78460000D01*
X129390000Y-80540000D02*
X129390000Y-82001000D01*
X129430000Y-77009000D02*
X129430000Y-78460000D01*
X129430000Y-80540000D02*
X129430000Y-81991000D01*
X129471000Y-77020000D02*
X129471000Y-78460000D01*
X129471000Y-80540000D02*
X129471000Y-81980000D01*
X129511000Y-77032000D02*
X129511000Y-78460000D01*
X129511000Y-80540000D02*
X129511000Y-81968000D01*
X129551000Y-77045000D02*
X129551000Y-78460000D01*
X129551000Y-80540000D02*
X129551000Y-81955000D01*
X129591000Y-77058000D02*
X129591000Y-78460000D01*
X129591000Y-80540000D02*
X129591000Y-81942000D01*
X129631000Y-77072000D02*
X129631000Y-78460000D01*
X129631000Y-80540000D02*
X129631000Y-81928000D01*
X129671000Y-77086000D02*
X129671000Y-78460000D01*
X129671000Y-80540000D02*
X129671000Y-81914000D01*
X129711000Y-77102000D02*
X129711000Y-78460000D01*
X129711000Y-80540000D02*
X129711000Y-81898000D01*
X129751000Y-77118000D02*
X129751000Y-78460000D01*
X129751000Y-80540000D02*
X129751000Y-81882000D01*
X129791000Y-77135000D02*
X129791000Y-78460000D01*
X129791000Y-80540000D02*
X129791000Y-81865000D01*
X129831000Y-77152000D02*
X129831000Y-78460000D01*
X129831000Y-80540000D02*
X129831000Y-81848000D01*
X129871000Y-77171000D02*
X129871000Y-78460000D01*
X129871000Y-80540000D02*
X129871000Y-81829000D01*
X129911000Y-77190000D02*
X129911000Y-78460000D01*
X129911000Y-80540000D02*
X129911000Y-81810000D01*
X129951000Y-77210000D02*
X129951000Y-78460000D01*
X129951000Y-80540000D02*
X129951000Y-81790000D01*
X129991000Y-77232000D02*
X129991000Y-78460000D01*
X129991000Y-80540000D02*
X129991000Y-81768000D01*
X130031000Y-77253000D02*
X130031000Y-78460000D01*
X130031000Y-80540000D02*
X130031000Y-81747000D01*
X130071000Y-77276000D02*
X130071000Y-78460000D01*
X130071000Y-80540000D02*
X130071000Y-81724000D01*
X130111000Y-77300000D02*
X130111000Y-78460000D01*
X130111000Y-80540000D02*
X130111000Y-81700000D01*
X130151000Y-77325000D02*
X130151000Y-78460000D01*
X130151000Y-80540000D02*
X130151000Y-81675000D01*
X130191000Y-77351000D02*
X130191000Y-78460000D01*
X130191000Y-80540000D02*
X130191000Y-81649000D01*
X130231000Y-77378000D02*
X130231000Y-78460000D01*
X130231000Y-80540000D02*
X130231000Y-81622000D01*
X130271000Y-77405000D02*
X130271000Y-78460000D01*
X130271000Y-80540000D02*
X130271000Y-81595000D01*
X130311000Y-77435000D02*
X130311000Y-78460000D01*
X130311000Y-80540000D02*
X130311000Y-81565000D01*
X130351000Y-77465000D02*
X130351000Y-78460000D01*
X130351000Y-80540000D02*
X130351000Y-81535000D01*
X130391000Y-77496000D02*
X130391000Y-78460000D01*
X130391000Y-80540000D02*
X130391000Y-81504000D01*
X130431000Y-77529000D02*
X130431000Y-78460000D01*
X130431000Y-80540000D02*
X130431000Y-81471000D01*
X130471000Y-77563000D02*
X130471000Y-78460000D01*
X130471000Y-80540000D02*
X130471000Y-81437000D01*
X130511000Y-77599000D02*
X130511000Y-78460000D01*
X130511000Y-80540000D02*
X130511000Y-81401000D01*
X130551000Y-77636000D02*
X130551000Y-78460000D01*
X130551000Y-80540000D02*
X130551000Y-81364000D01*
X130591000Y-77674000D02*
X130591000Y-78460000D01*
X130591000Y-80540000D02*
X130591000Y-81326000D01*
X130631000Y-77715000D02*
X130631000Y-78460000D01*
X130631000Y-80540000D02*
X130631000Y-81285000D01*
X130671000Y-77757000D02*
X130671000Y-78460000D01*
X130671000Y-80540000D02*
X130671000Y-81243000D01*
X130711000Y-77801000D02*
X130711000Y-78460000D01*
X130711000Y-80540000D02*
X130711000Y-81199000D01*
X130751000Y-77847000D02*
X130751000Y-78460000D01*
X130751000Y-80540000D02*
X130751000Y-81153000D01*
X130791000Y-77895000D02*
X130791000Y-78460000D01*
X130791000Y-80540000D02*
X130791000Y-81105000D01*
X130831000Y-77946000D02*
X130831000Y-78460000D01*
X130831000Y-80540000D02*
X130831000Y-81054000D01*
X130871000Y-78000000D02*
X130871000Y-78460000D01*
X130871000Y-80540000D02*
X130871000Y-81000000D01*
X130911000Y-78057000D02*
X130911000Y-78460000D01*
X130911000Y-80540000D02*
X130911000Y-80943000D01*
X130951000Y-78117000D02*
X130951000Y-78460000D01*
X130951000Y-80540000D02*
X130951000Y-80883000D01*
X130991000Y-78181000D02*
X130991000Y-78460000D01*
X130991000Y-80540000D02*
X130991000Y-80819000D01*
X131031000Y-78249000D02*
X131031000Y-78460000D01*
X131031000Y-80540000D02*
X131031000Y-80751000D01*
X131071000Y-78322000D02*
X131071000Y-80678000D01*
X131111000Y-78402000D02*
X131111000Y-80598000D01*
X131151000Y-78489000D02*
X131151000Y-80511000D01*
X131191000Y-78585000D02*
X131191000Y-80415000D01*
X131231000Y-78695000D02*
X131231000Y-80305000D01*
X131271000Y-78823000D02*
X131271000Y-80177000D01*
X131311000Y-78982000D02*
X131311000Y-80018000D01*
X131351000Y-79216000D02*
X131351000Y-79784000D01*
X131370000Y-79500000D02*
G75*
G02*
X126130000Y-79500000I-2620000J0D01*
G01*
X126130000Y-79500000D02*
G75*
G02*
X131370000Y-79500000I2620000J0D01*
G01*
%TO.C,D3*%
X159561500Y-84920000D02*
X159561500Y-84455000D01*
X159561500Y-87545000D02*
X159561500Y-87080000D01*
X154213685Y-84919173D02*
G75*
G02*
X159561500Y-84455170I2787815J-1080827D01*
G01*
X154747021Y-84919571D02*
G75*
G02*
X159256184Y-84920000I2254479J-1080429D01*
G01*
X159256184Y-87080000D02*
G75*
G02*
X154747021Y-87080429I-2254684J1080000D01*
G01*
X159561500Y-87544830D02*
G75*
G02*
X154213685Y-87080827I-2560000J1544830D01*
G01*
%TO.C,U1*%
X110340000Y-70230000D02*
X110340000Y-74871000D01*
X110340000Y-70230000D02*
X120580000Y-70230000D01*
X110340000Y-71740000D02*
X120580000Y-71740000D01*
X110340000Y-74871000D02*
X120580000Y-74871000D01*
X113610000Y-70230000D02*
X113610000Y-71740000D01*
X117311000Y-70230000D02*
X117311000Y-71740000D01*
X120580000Y-70230000D02*
X120580000Y-74871000D01*
%TO.C,D2*%
X103171551Y-100167366D02*
G75*
G02*
X103231153Y-97900000I-1251551J1167366D01*
G01*
%TO.C,L1*%
X100530000Y-87120000D02*
G75*
G02*
X100530000Y-84880000I-1800000J1120000D01*
G01*
%TO.C,R2*%
X119500000Y-82330000D02*
X119500000Y-82400000D01*
X120870000Y-80960000D02*
G75*
G02*
X118130000Y-80960000I-1370000J0D01*
G01*
X118130000Y-80960000D02*
G75*
G02*
X120870000Y-80960000I1370000J0D01*
G01*
%TD*%
M02*
