%TF.GenerationSoftware,KiCad,Pcbnew,8.0.2-1.fc40*%
%TF.CreationDate,2024-06-01T22:16:48+03:00*%
%TF.ProjectId,project-depth-to-nmea,70726f6a-6563-4742-9d64-657074682d74,rev?*%
%TF.SameCoordinates,Original*%
%TF.FileFunction,Soldermask,Bot*%
%TF.FilePolarity,Negative*%
%FSLAX46Y46*%
G04 Gerber Fmt 4.6, Leading zero omitted, Abs format (unit mm)*
G04 Created by KiCad (PCBNEW 8.0.2-1.fc40) date 2024-06-01 22:16:48*
%MOMM*%
%LPD*%
G01*
G04 APERTURE LIST*
%ADD10C,3.200000*%
%ADD11R,1.600000X1.600000*%
%ADD12O,1.600000X1.600000*%
%ADD13R,1.700000X1.700000*%
%ADD14O,1.700000X1.700000*%
%ADD15C,1.600000*%
%ADD16C,1.400000*%
%ADD17R,2.200000X2.200000*%
%ADD18O,2.200000X2.200000*%
%ADD19R,1.800000X1.800000*%
%ADD20C,1.800000*%
%ADD21R,1.905000X2.000000*%
%ADD22O,1.905000X2.000000*%
%ADD23C,2.000000*%
%ADD24O,2.000000X2.000000*%
G04 APERTURE END LIST*
D10*
%TO.C,H2*%
X178000000Y-50000000D03*
%TD*%
D11*
%TO.C,A1*%
X177550000Y-96390000D03*
D12*
X175010000Y-96390000D03*
X172470000Y-96390000D03*
X169930000Y-96390000D03*
X167390000Y-96390000D03*
X164850000Y-96390000D03*
X162310000Y-96390000D03*
X159770000Y-96390000D03*
X157230000Y-96390000D03*
X154690000Y-96390000D03*
X152150000Y-96390000D03*
X149610000Y-96390000D03*
X147070000Y-96390000D03*
X144530000Y-96390000D03*
X141990000Y-96390000D03*
X141990000Y-111630000D03*
X144530000Y-111630000D03*
X147070000Y-111630000D03*
X149610000Y-111630000D03*
X152150000Y-111630000D03*
X154690000Y-111630000D03*
X157230000Y-111630000D03*
X159770000Y-111630000D03*
X162310000Y-111630000D03*
X164850000Y-111630000D03*
X167390000Y-111630000D03*
X169930000Y-111630000D03*
X172470000Y-111630000D03*
X175010000Y-111630000D03*
X177550000Y-111630000D03*
%TD*%
D13*
%TO.C,J1*%
X120080000Y-89500000D03*
D14*
X117540000Y-89500000D03*
X115000000Y-89500000D03*
X112460000Y-89500000D03*
X109920000Y-89500000D03*
%TD*%
D15*
%TO.C,R1*%
X112500000Y-83045000D03*
D12*
X112500000Y-80505000D03*
%TD*%
D15*
%TO.C,R3*%
X155455000Y-76500000D03*
D12*
X157995000Y-76500000D03*
%TD*%
D16*
%TO.C,JP1*%
X166000000Y-85250000D03*
X166000000Y-87790000D03*
%TD*%
D10*
%TO.C,H4*%
X178000000Y-119000000D03*
%TD*%
D11*
%TO.C,C1*%
X127500000Y-68000000D03*
D15*
X130000000Y-68000000D03*
%TD*%
D17*
%TO.C,D1*%
X119428200Y-98500000D03*
D18*
X121968200Y-98500000D03*
%TD*%
D11*
%TO.C,C2*%
X127500000Y-79500000D03*
D15*
X130000000Y-79500000D03*
%TD*%
D19*
%TO.C,D3*%
X160240000Y-86000000D03*
D20*
X158081000Y-86000000D03*
X155922000Y-86000000D03*
X153763000Y-86000000D03*
%TD*%
D21*
%TO.C,U1*%
X112920000Y-73500000D03*
D22*
X115460000Y-73500000D03*
X118000000Y-73500000D03*
%TD*%
D10*
%TO.C,H3*%
X100000000Y-119000000D03*
%TD*%
D17*
%TO.C,D2*%
X101920000Y-99000000D03*
D18*
X104460000Y-99000000D03*
%TD*%
D23*
%TO.C,L1*%
X98730000Y-86000000D03*
D24*
X101270000Y-86000000D03*
%TD*%
D15*
%TO.C,R2*%
X119500000Y-80960000D03*
D12*
X119500000Y-83500000D03*
%TD*%
D10*
%TO.C,H1*%
X100000000Y-50000000D03*
%TD*%
M02*
